<svg width="24" height="25" viewBox="0 0 24 25" fill="none" xmlns="http://www.w3.org/2000/svg">
<path fill-rule="evenodd" clip-rule="evenodd" d="M4.8199 5.67555C8.57986 1.91559 14.6759 1.91565 18.4359 5.67555C22.1831 9.42277 22.1958 15.4901 18.4741 19.2531C18.4611 19.2648 18.4484 19.2768 18.4359 19.2893C18.4234 19.3018 18.4112 19.3146 18.3995 19.3277C14.6367 23.0514 8.56777 23.0394 4.8199 19.2915C1.06003 15.5315 1.06003 9.43552 4.8199 5.67555ZM19.1142 21.3818C14.5456 25.2342 7.70888 25.0089 3.40569 20.7057C-1.13523 16.1647 -1.13523 8.80236 3.40569 4.26134C7.9467 -0.27967 15.309 -0.279609 19.8501 4.26134C24.1525 8.56379 24.3786 15.3988 20.5282 19.9674L22.8498 22.289C23.2403 22.6795 23.2403 23.3127 22.8498 23.7032C22.4593 24.0937 21.8261 24.0937 21.4356 23.7032L19.1142 21.3818Z" fill="#5A5A5A"/>
</svg>
